# xmcd
# 
# Track frame offsets:
#     150
#     17981
#     30760
#     46084
#     60002
#     76608
#     91063
#     105300
#     119804
#     132040
#     150666
# 
# Disc length: 2205
# 
# Revision: 0
# Processed by: cddbd v1.5.2PL0 Copyright (c) Steve Scherf et al.
# Submitted via: fre:ac v1.0.17
# 
DISCID=6b089b0b
DTITLE=Madison Violet - The Knight Sessions
DYEAR=2016
DGENRE=Country
TTITLE0=We are amous
TTITLE1=These ships - Acoustic
TTITLE2=The heat
TTITLE3=Same sun - Acoustic
TTITLE4=Ohio - Acoustic
TTITLE5=Hush
TTITLE6=Don´t let your heart be troubled
TTITLE7=Trouble - Acoustic
TTITLE8=Operator - Acoustic
TTITLE9=How we see love
TTITLE10=These ships - TZ mix
EXTD=
EXTT0=
EXTT1=
EXTT2=
EXTT3=
EXTT4=
EXTT5=
EXTT6=
EXTT7=
EXTT8=
EXTT9=
EXTT10=
PLAYORDER=
